<?xml version="1.0" encoding="UTF-8"?>
<svg width="428px" height="105px" viewBox="0 0 428 105" version="1.1" xmlns="http://www.w3.org/2000/svg" xmlns:xlink="http://www.w3.org/1999/xlink">
    <!-- Generator: Sketch 48.1 (47250) - http://www.bohemiancoding.com/sketch -->
    <title>masthead-logo</title>
    <desc>Created with Sketch.</desc>
    <defs></defs>
    <g id="Page-1" stroke="none" stroke-width="1" fill="none" fill-rule="evenodd">
        <g id="masthead-logo" fill-rule="nonzero">
            <path d="M128.81,62.13 C128.81,63.13 128.91,63.46 130.04,64.03 L138.21,68.5 L109.53,68.69 L117.7,64 C118.7,63.43 118.94,63.15 118.94,62.1 L118.94,16.53 C118.94,14.63 119.13,11.97 119.32,9.97 L96.23,69.16 L74.09,16.44 C73.24,14.54 72.48,12.16 71.81,10.17 L71.81,59.09 C71.81,60.61 71.9,60.9 73.33,61.94 L82.26,68.5 L59.46,68.69 L68.46,61.94 C69.88,60.94 69.98,60.52 69.98,59.09 L69.98,9.6 C69.98,7.99 69.79,7.79 68.84,7.23 L60.79,2.09 L78.84,1.9 L100.31,53.77 L120.55,1.9 L138.22,1.9 L130,6.56 C128.86,7.23 128.77,7.41 128.77,8.46 L128.81,62.13 Z" id="Shape" fill="#FFFFFF"></path>
            <path d="M163.87,36 L163.87,35.72 C163.87,28.5 160.64,23.27 153.7,23.27 C151.33,23.27 151.13,23.27 150.57,24.6 L144.77,37.14 L144.58,37.14 L140.31,24.8 C145.381444,22.7008018 150.821369,21.6366165 156.31,21.67 C161.92,21.67 165.62,22.52 168.38,25.38 C171.14,28.24 172.66,32.88 172.66,40.96 L172.66,42.29 L172.28,57.77 C172.18,61.86 173.13,64.14 175.7,64.14 C177.41,64.14 178.36,63.14 178.83,61.39 L179,61.39 C178.994157,62.3968871 178.800862,63.3938818 178.43,64.33 C177.326272,67.4204195 174.391557,69.4771255 171.11,69.46 C166.93,69.46 163.51,66.33 163.51,59.39 C161.61,65.76 156.86,69.46 150.78,69.46 C144.23,69.46 138.43,65 138.43,57.02 C138.43,47.8 146.22,43.15 153.82,43.15 C157.33824,43.0838415 160.790316,44.1110788 163.7,46.09 L163.87,36 Z M147.72,55.86 C147.72,60.86 150.85,64.13 154.94,64.13 C158.27,64.13 161.5,62.04 163.49,58.62 L163.49,58.34 L163.68,46.65 C161.914196,46.0034274 160.050396,45.6651698 158.17,45.65 C151.33,45.7 147.72,50.54 147.72,55.86 Z" id="Shape" fill="#FFFFFF"></path>
            <path d="M199,50.07 L193.11,47.41 C188.11,45.13 184.18,41.23 184.18,34.96 C184.18,26.5 192.07,21.66 199.95,21.66 C204.837892,21.5776639 209.701115,22.370139 214.31,24 L210.7,36.1 L210.51,36.1 L204.43,24.51 C203.86,23.51 203.76,23.37 202.34,23.18 C201.519156,23.10092 200.69455,23.0675352 199.87,23.08 C195.41,23.08 191.41,26.02 191.41,31.44 C191.41,36.09 194.74,37.99 198.72,39.7 L205.09,42.46 C210.7,44.84 215.92,47.97 215.92,55.1 C215.92,64.69 207.18,69.44 197.92,69.44 C192.823213,69.3222561 187.781335,68.3591627 183,66.59 L187,53.38 L187.19,53.38 L192.51,66.49 C192.89,67.34 192.98,67.49 194.31,67.72 C195.565959,67.9258562 196.837348,68.0228832 198.11,68.01 C204.66,68.01 207.8,63.64 207.8,59.18 C207.85,54 203.67,52.16 199,50.07 Z" id="Shape" fill="#FFFFFF"></path>
            <path d="M233.22,57.76 C233.22,61.94 235.12,64.51 238.64,64.51 C242.16,64.51 244.91,61.85 245.95,58.91 L246.14,58.91 C245.29,64.51 241.68,69.45 234.36,69.45 C227.81,69.45 224.19,66.03 224.19,58.72 L224.19,24.13 L217.54,24.13 L217.54,22.42 L222.77,22.42 C224.1,22.42 224.39,22.23 225.05,21.09 L233,7 L233.19,7 L233.19,22.42 L246.68,22.42 L246.68,24.13 L233.22,24.13 L233.22,57.76 Z" id="Shape" fill="#FFFFFF"></path>
            <path d="M291.73,64.7 L298.19,68.5 L298.19,68.69 L274.19,68.69 L274.19,68.5 L280.27,64.7 C281.27,64.03 281.51,63.47 281.51,62.8 C281.51,62.13 281.8,47.6 281.8,43.7 C281.8,32.11 279.23,27.17 273.63,27.17 C269.26,27.17 265.84,30.02 263.63,34.17 L263.63,62.61 C263.63,63.61 263.63,63.94 264.77,64.61 L271.14,68.51 L271.14,68.7 L247.14,68.7 L247.14,68.5 L253.6,64.7 C254.6,64.13 254.6,63.7 254.6,62.61 L254.6,8.08 C254.6,6.85 254.51,6.47 253.6,5.89 L247.14,2.09 L247.14,1.9 L263.61,0 L263.61,33.63 C265.89,25.37 270.83,21.63 277.67,21.63 C286.03,21.63 290.78,27.52 290.78,40.63 C290.78,45.29 290.69,54.98 290.59,62.58 C290.59,63.75 290.69,64.13 291.73,64.7 Z" id="Shape" fill="#FFFFFF"></path>
            <path d="M304.75,41.61 L304.75,44.27 C304.75,57.1 310.75,64.03 318.52,64.03 C325.08,64.03 330.21,60.8 333.63,52.34 L333.82,52.44 C331.82,63.84 325.27,69.44 315.39,69.44 C305.04,69.44 295.63,62.32 295.63,45.98 C295.63,27.93 306.63,21.66 315.77,21.66 C324.91,21.66 333.63,27.08 333.63,39.14 C333.617462,39.9664544 333.554008,40.791351 333.44,41.61 L304.75,41.61 Z M304.84,39.99 L324.41,39.99 L324.41,39.8 C324.41,29.26 321.94,23.08 315.67,23.08 C309.4,23.08 305.6,29.74 304.84,40 L304.84,39.99 Z" id="Shape" fill="#FFFFFF"></path>
            <path d="M363.46,36 L363.46,35.72 C363.46,28.5 360.23,23.27 353.29,23.27 C350.92,23.27 350.72,23.27 350.15,24.6 L344.36,37.14 L344.17,37.14 L339.9,24.8 C344.971444,22.7008018 350.411369,21.6366165 355.9,21.67 C361.51,21.67 365.21,22.52 367.97,25.38 C370.73,28.24 372.25,32.88 372.25,40.96 L372.25,42.29 L371.87,57.77 C371.78,61.86 372.73,64.14 375.29,64.14 C377,64.14 377.95,63.14 378.42,61.39 L378.61,61.39 C378.604157,62.3968871 378.410862,63.3938818 378.04,64.33 C376.936272,67.4204195 374.001557,69.4771255 370.72,69.46 C366.54,69.46 363.12,66.33 363.12,59.39 C361.22,65.76 356.47,69.46 350.39,69.46 C343.79,69.45 338,65 338,57 C338,47.78 345.79,43.13 353.39,43.13 C356.90824,43.0638415 360.360316,44.0910788 363.27,46.07 L363.46,36 Z M347.31,55.86 C347.31,60.86 350.44,64.13 354.53,64.13 C357.86,64.13 361.09,62.04 363.08,58.62 L363.08,58.34 L363.27,46.65 C361.504196,46.0034274 359.640396,45.6651698 357.76,45.65 C350.92,45.7 347.31,50.54 347.31,55.86 Z" id="Shape" fill="#FFFFFF"></path>
            <path d="M419.89,61.66 C419.89,62.9 419.98,63.09 420.89,63.75 L427.35,68.5 L427.35,68.69 L410.86,68.69 L410.86,58.9 C408.2,66.4 402.78,69.44 397.18,69.44 C387.18,69.44 380.27,59.75 380.27,45.98 C380.27,30.98 388.54,21.66 398.61,21.66 C405.36,21.66 408.96,25.74 410.86,30.4 L410.86,8.08 C410.86,6.85 410.77,6.47 409.86,5.89 L403.4,2.09 L403.4,1.9 L419.89,0 L419.89,61.66 Z M410.89,58.24 L410.89,31.24 C408.32,27.53 405.28,25.45 401.58,25.45 C395.21,25.45 389.99,31.63 389.99,44.93 C389.99,58.8 395.6,64.79 401.49,64.79 C404.78,64.79 407.82,62.8 410.86,58.24 L410.89,58.24 Z" id="Shape" fill="#FFFFFF"></path>
            <path d="M12.09,39.81 L8.3,39.81 L17.3,4.59 L18.88,4.59 C22.99,4.59 23.94,5.06 22.67,12.17 L23.62,12.17 L25.83,3.48 L4.66,3.48 L2.45,12.17 L3.4,12.17 C5.77,6.17 6.72,4.59 10.98,4.59 L12.88,4.59 L3.88,39.81 L0.4,39.81 L0.08,40.92 L11.77,40.92 L12.09,39.81 Z" id="Shape" fill="#FFFFFF"></path>
            <path d="M20.62,40.92 L24.57,40.92 L28.68,25.12 C29.79,21.01 32.16,17.38 34.68,17.38 C35.2105696,17.3253938 35.7390512,17.5011877 36.1311949,17.8627251 C36.5233386,18.2242625 36.7414054,18.7367497 36.73,19.27 C36.6592554,20.3986065 36.4476124,21.5139316 36.1,22.59 L32.94,34.76 C32.5973875,35.9466134 32.3861212,37.1672631 32.31,38.4 C32.2240595,39.2189908 32.5123975,40.0330153 33.0946911,40.6153089 C33.6769847,41.1976025 34.4910092,41.4859405 35.31,41.4 C39.42,41.4 41.15,36.66 41.63,35.56 L40.84,35.24 C40.36,36.35 38.94,39.35 37.21,39.35 C36.58,39.35 36.26,39.03 36.26,38.09 C36.3280184,37.0781108 36.4852964,36.0742086 36.73,35.09 L39.89,23.24 C40.2659618,21.9552206 40.477647,20.6279879 40.52,19.29 C40.52,17.55 39.41,15.5 36.26,15.5 C32.94,15.5 30.73,18.5 30.1,19.45 L34.21,3.45 L27.57,3.45 L27.26,4.56 L29.94,4.56 L20.62,40.92 Z" id="Shape" fill="#FFFFFF"></path>
            <path d="M49.68,41.39 C54.89,41.39 57.42,35.39 57.89,34.13 L57,33.66 C56.05,35.87 54,39.5 50.52,39.5 C48.46,39.5 47.36,38.08 47.36,35.55 C47.3934645,33.8987848 47.6046826,32.255977 47.99,30.65 C52.89,29.54 61.1,25.44 61.1,19.75 C61.1,17.22 59.68,15.49 56.36,15.49 C50.2,15.49 43.56,25.49 43.56,34.92 C43.52,38.4 44.95,41.39 49.68,41.39 Z M56.32,16.59 C57.74,16.59 58.22,17.22 58.22,18.48 C58.22,22.59 53.95,27.8 48.22,29.38 C49.68,22.75 53.32,16.6 56.32,16.6 L56.32,16.59 Z" id="Shape" fill="#FFFFFF"></path>
            <polygon id="Shape" fill="#EEEEEE" points="69 85.42 80.7 85.42 80.7 88.23 72.48 88.23 72.48 93.87 78.94 93.87 78.94 96.6 72.48 96.6 72.48 104.36 69 104.36"></polygon>
            <path d="M89.07,85.42 L95.43,85.42 C99.59,85.42 102.5,87.12 102.5,90.98 L102.5,91.09 C102.5,94.09 100.65,95.57 98.29,96.18 L103.61,104.37 L99.8,104.37 L94.8,96.71 L92.59,96.71 L92.59,104.37 L89.07,104.37 L89.07,85.42 Z M95.43,94.19 C97.79,94.19 99.03,93.19 99.03,91.19 L99.03,91.08 C99.03,88.91 97.68,88.17 95.43,88.17 L92.59,88.17 L92.59,94.17 L95.43,94.19 Z" id="Shape" fill="#EEEEEE"></path>
            <path d="M110.5,95 L110.5,94.79 C110.404448,92.2139619 111.382398,89.7138233 113.20044,87.8863034 C115.018481,86.0587835 117.5135,85.0678452 120.09,85.15 C122.655568,85.0409201 125.149113,86.0137502 126.96298,87.8314198 C128.776847,89.6490893 129.744453,92.1446665 129.63,94.71 L129.63,94.92 C129.63,100.46 125.84,104.62 120.09,104.62 C117.50936,104.729236 115.00145,103.749787 113.177883,101.920515 C111.354315,100.091243 110.382704,97.580286 110.5,95 Z M126,95 L126,94.79 C126,90.9 123.83,88.01 120.12,88.01 C116.41,88.01 114.21,90.74 114.21,94.82 L114.21,95 C114.21,99.13 116.73,101.81 120.21,101.81 C123.69,101.81 126,99.06 126,95 Z" id="Shape" fill="#EEEEEE"></path>
            <polygon id="Shape" fill="#EEEEEE" points="138.32 85.42 143 85.42 148 98.35 152.87 85.42 157.53 85.42 157.53 104.36 154 104.36 154 90.05 148.36 104.35 147.22 104.35 141.47 90.05 141.47 104.35 138.29 104.35"></polygon>
            <polygon id="Shape" fill="#EEEEEE" points="182.59 88.2 177.32 88.2 177.32 85.42 191.41 85.42 191.41 88.2 186.14 88.2 186.14 104.36 182.59 104.36"></polygon>
            <polygon id="Shape" fill="#EEEEEE" points="199.54 85.42 203.06 85.42 203.06 93.47 211.56 93.47 211.56 85.42 215.11 85.42 215.11 104.36 211.56 104.36 211.56 96.3 203.06 96.3 203.06 104.35 199.54 104.35"></polygon>
            <polygon id="Shape" fill="#EEEEEE" points="224.74 85.42 236.58 85.42 236.58 88.2 228.26 88.2 228.26 93.39 234.93 93.39 234.93 96 228.26 96 228.26 101.54 237 101.54 237 104.32 224.74 104.32"></polygon>
            <path d="M262,85.42 L266.61,85.42 L272.86,104.36 L269.2,104.36 L267.69,99.67 L260.46,99.67 L259,104.36 L255.69,104.36 L262,85.42 Z M261.29,97.1 L266.88,97.1 L264.1,88.31 L261.29,97.1 Z" id="Shape" fill="#EEEEEE"></path>
            <polygon id="Shape" fill="#EEEEEE" points="283 88.2 277.7 88.2 277.7 85.42 291.79 85.42 291.79 88.2 286.52 88.2 286.52 104.36 283 104.36"></polygon>
            <polygon id="Shape" fill="#EEEEEE" points="299.93 85.42 303.45 85.42 303.45 101.55 311.53 101.55 311.53 104.36 299.93 104.36"></polygon>
            <path d="M324.83,85.42 L329.44,85.42 L335.69,104.36 L332,104.36 L330.49,99.67 L323.26,99.67 L321.78,104.36 L318.5,104.36 L324.83,85.42 Z M324.12,97.1 L329.71,97.1 L326.93,88.31 L324.12,97.1 Z" id="Shape" fill="#EEEEEE"></path>
            <polygon id="Shape" fill="#EEEEEE" points="343.88 85.42 348.09 85.42 356.09 99.12 356.09 85.42 359.3 85.42 359.3 104.36 355.64 104.36 347.11 89.84 347.11 104.36 343.9 104.36"></polygon>
            <polygon id="Shape" fill="#EEEEEE" points="372.7 88.2 367.43 88.2 367.43 85.42 381.52 85.42 381.52 88.2 376.25 88.2 376.25 104.36 372.7 104.36"></polygon>
            <polygon id="Shape" fill="#EEEEEE" points="389.76 85.42 393.31 85.42 393.31 104.36 389.76 104.36"></polygon>
            <path d="M402.14,95 L402.14,94.79 C402.14,89.09 406.06,85.12 411.33,85.12 C415.67,85.12 419.04,87.29 419.46,91.74 L415.88,91.74 C415.48,89.22 414.08,87.93 411.35,87.93 C408.01,87.93 405.84,90.53 405.84,94.76 L405.84,95 C405.84,99.27 407.84,101.78 411.38,101.78 C414,101.78 415.86,100.46 416.23,97.78 L419.67,97.78 C419.11,102.34 415.88,104.64 411.38,104.64 C405.45,104.62 402.14,100.83 402.14,95 Z" id="Shape" fill="#EEEEEE"></path>
        </g>
    </g>
</svg>